<?xml version="1.0" encoding="UTF-8"?>
<!DOCTYPE svg PUBLIC "-//W3C//DTD SVG 1.1//EN" "http://www.w3.org/Graphics/SVG/1.1/DTD/svg11.dtd">
<svg version="1.1" xmlns="http://www.w3.org/2000/svg" xmlns:xlink="http://www.w3.org/1999/xlink" x="0" y="0" width="18" height="18" viewBox="0, 0, 18, 18">
  <defs>
    <linearGradient id="Gradient_1" gradientUnits="userSpaceOnUse" x1="2.88" y1="-0" x2="2.88" y2="5.76" gradientTransform="matrix(3.125, 0, 0, 3.125, 0, 0)">
      <stop offset="0" stop-color="#24ADFF"/>
      <stop offset="1" stop-color="#7B71FF"/>
    </linearGradient>
  </defs>
  <g id="Layer_1">
    <path d="M9,-0 C13.971,-0 18,4.029 18,9 C18,13.971 13.971,18 9,18 C4.029,18 0,13.971 0,9 C0,4.029 4.029,-0 9,-0 z M8.556,8.312 L5.329,11.194 C4.996,11.455 4.778,11.887 4.778,12.373 C4.778,13.166 5.36,13.815 6.071,13.815 L12.135,13.815 C12.846,13.815 13.428,13.166 13.428,12.373 C13.428,11.58 12.846,10.931 12.135,10.931 L7.544,10.931 C7.476,10.931 7.433,10.849 7.467,10.783 L8.65,8.413 C8.693,8.344 8.616,8.261 8.556,8.312 z M12.135,4.174 L6.071,4.174 C5.36,4.174 4.778,4.823 4.778,5.616 C4.778,6.409 5.36,7.058 6.071,7.058 L6.071,7.058 L10.662,7.058 C10.73,7.058 10.773,7.139 10.74,7.206 L10.74,7.206 L9.556,9.576 C9.513,9.645 9.591,9.727 9.651,9.676 L9.651,9.676 L12.878,6.794 C13.21,6.533 13.428,6.101 13.428,5.615 C13.428,4.822 12.846,4.174 12.135,4.174 L12.135,4.174 z" fill="url(#Gradient_1)"/>
  </g>
</svg>
